<?xml version="1.0" encoding="UTF-8"?>
<svg width="15px" height="18px" viewBox="0 0 15 18" version="1.1" xmlns="http://www.w3.org/2000/svg" xmlns:xlink="http://www.w3.org/1999/xlink">
    <!-- Generator: Sketch 63.1 (92452) - https://sketch.com -->
    <title> copy 2</title>
    <desc>Created with Sketch.</desc>
    <g id="Consumer-App-Phase-2" stroke="none" stroke-width="1" fill="none" fill-rule="evenodd">
        <g id="Ticket-List-Copy" transform="translate(-272.000000, -641.000000)" fill="#279CF7" fill-rule="nonzero">
            <path d="M278.618976,659 L278.618976,657.08365 C277.730422,656.946768 276.928464,656.608365 276.213102,656.068441 C275.497741,655.528517 274.932982,654.859316 274.518825,654.060837 C274.104669,653.262357 273.89759,652.39924 273.89759,651.471483 C273.89759,650.543726 274.104669,649.680608 274.518825,648.882129 C274.932982,648.08365 275.497741,647.414449 276.213102,646.874525 C276.928464,646.334601 277.730422,645.996198 278.618976,645.859316 L278.618976,645.859316 L278.618976,649.555133 L282.888554,645.311787 L278.618976,641 L278.618976,643.942966 C277.399096,644.079848 276.284639,644.501901 275.275602,645.209125 C274.266566,645.91635 273.475904,646.809886 272.903614,647.889734 C272.301205,649.015209 272,650.209125 272,651.471483 C272,652.73384 272.301205,653.927757 272.903614,655.053232 C273.475904,656.117871 274.266566,657.003802 275.275602,657.711027 C276.284639,658.418251 277.399096,658.847909 278.618976,659 L278.618976,659 Z M287,650.536122 C286.819277,649.152091 286.322289,647.920152 285.509036,646.840304 L285.509036,646.840304 L284.131024,648.163498 C284.628012,648.8327 284.951807,649.623574 285.10241,650.536122 L285.10241,650.536122 L287,650.536122 Z M285.509036,656.102662 C286.322289,655.022814 286.819277,653.790875 287,652.406844 L287,652.406844 L285.10241,652.406844 C284.951807,653.319392 284.628012,654.102662 284.131024,654.756654 L284.131024,654.756654 L285.509036,656.102662 Z M280.471386,659 C281.871988,658.802281 283.106928,658.30038 284.176205,657.494297 L284.176205,657.494297 L282.820783,656.102662 C282.158133,656.604563 281.375,656.931559 280.471386,657.08365 L280.471386,657.08365 L280.471386,659 Z" id="-copy-2"></path>
        </g>
    </g>
</svg>