<?xml version="1.0" encoding="UTF-8"?>
<svg width="16px" height="16px" viewBox="0 0 16 16" version="1.1" xmlns="http://www.w3.org/2000/svg" xmlns:xlink="http://www.w3.org/1999/xlink">
    <!-- Generator: Sketch 63.1 (92452) - https://sketch.com -->
    <title>Icon/close</title>
    <desc>Created with Sketch.</desc>
    <g id="Mobile-app" stroke="none" stroke-width="1" fill="none" fill-rule="evenodd">
        <g id="Verification-/pop-up" transform="translate(-329.000000, -195.000000)" fill="#FFFFFF" fill-rule="nonzero">
            <g id="Icon/close" transform="translate(329.000000, 195.000000)">
                <path d="M15.7320819,14.4619596 L9.26618857,7.99268154 L15.7320819,1.52340345 C15.9019156,1.3582403 15.9977329,1.13138743 15.9977329,0.894459736 C15.9977329,0.657532039 15.9019156,0.430679177 15.7320819,0.26551602 L15.7320819,0.26551602 C15.5662977,0.0957272046 15.3390514,0 15.1017746,0 C14.8644979,0 14.6372515,0.0957272046 14.4714674,0.26551602 L8.00557412,6.73479411 L1.53868194,0.282500997 C1.31603538,0.0468193936 0.982979326,-0.0493146983 0.669023271,0.0314806515 C0.355067217,0.112276001 0.109756472,0.357250504 0.0284805987,0.671145345 C-0.0527952745,0.985040186 0.0427898446,1.31831972 0.278067495,1.54138755 L6.74296187,7.99268154 L0.278067495,14.4619596 C0.0427898446,14.6850275 -0.0527952745,15.018307 0.0284805987,15.3322018 C0.109756472,15.6460967 0.355067217,15.8910712 0.669023271,15.9718665 C0.982979326,16.0526619 1.31603538,15.9565278 1.53868194,15.7208462 L8.00457522,9.25156809 L14.4864509,15.7208462 C14.6524077,15.8906931 14.8798187,15.9864429 15.1172576,15.9864429 C15.3546966,15.9864429 15.5821075,15.8906931 15.7480643,15.7208462 C16.0901179,15.368365 16.0829737,14.8056396 15.7320819,14.4619596 Z" id="Close"></path>
            </g>
        </g>
    </g>
</svg>