<?xml version="1.0" encoding="UTF-8"?>
<svg width="11px" height="14px" viewBox="0 0 11 14" version="1.1" xmlns="http://www.w3.org/2000/svg" xmlns:xlink="http://www.w3.org/1999/xlink">
    <title>destination map</title>
    <g id="Redesign" stroke="none" stroke-width="1" fill="none" fill-rule="evenodd">
        <g id="Buy-ticket-with-placeholder" transform="translate(-21.000000, -521.000000)" fill="#BF1111" fill-rule="nonzero">
            <g id="Rectangle" transform="translate(13.000000, 411.000000)">
                <path d="M13.9601182,124 C14.1308033,124 14.2801527,123.943034 14.4081665,123.829102 C14.5361804,123.715169 14.6001873,123.653646 14.6001873,123.644531 C15.0183657,123.134115 15.4664141,122.550781 15.9443323,121.894531 C16.4222505,121.238281 16.8660317,120.543294 17.2756759,119.80957 C17.6853201,119.075846 18.0245567,118.328451 18.2933857,117.567383 C18.5622147,116.806315 18.6966292,116.061198 18.6966292,115.332031 C18.6966292,114.611979 18.5878175,113.928385 18.370194,113.28125 C18.1525705,112.634115 17.8368031,112.066732 17.4228918,111.579102 C17.0089805,111.091471 16.4990588,110.70638 15.8931268,110.423828 C15.2871947,110.141276 14.6001873,110 13.8321044,110 C13.1578983,110 12.5199628,110.141276 11.9182979,110.423828 C11.316633,110.70638 10.7896428,111.091471 10.3373274,111.579102 C9.8850119,112.066732 9.52657323,112.634115 9.26201135,113.28125 C8.99744948,113.928385 8.86516854,114.611979 8.86516854,115.332031 C8.86516854,116.088542 9.01238442,116.845052 9.30681619,117.601562 C9.60124795,118.358073 9.96822088,119.094076 10.407735,119.80957 C10.847249,120.525065 11.3251673,121.20638 11.8414896,121.853516 C12.357812,122.500651 12.8378638,123.097656 13.281645,123.644531 C13.281645,123.653646 13.3435184,123.715169 13.467265,123.829102 C13.5910117,123.943034 13.7424947,124 13.9217141,124 L13.9601182,124 Z M13.9345154,123.111328 L13.8833099,123.056641 L13.8833099,123.056641 L13.6656864,122.796875 C13.247508,122.277344 12.8037268,121.719076 12.3343428,121.12207 C11.8649588,120.525065 11.433979,119.905273 11.0414033,119.262695 C10.6488276,118.620117 10.324526,117.966146 10.0684984,117.300781 C9.81247074,116.635417 9.68445693,115.979167 9.68445693,115.332031 C9.68445693,114.730469 9.79540223,114.158529 10.0172928,113.616211 C10.2391834,113.073893 10.5378823,112.599935 10.9133895,112.194336 C11.2888967,111.788737 11.7284108,111.467448 12.2319318,111.230469 C12.7354528,110.99349 13.2688436,110.875 13.8321044,110.875 C14.5319132,110.875 15.1357117,111.002604 15.6434998,111.257812 C16.1512879,111.513021 16.5716,111.85026 16.9044359,112.269531 C17.2372718,112.688802 17.4826316,113.165039 17.6405153,113.698242 C17.798399,114.231445 17.8773408,114.776042 17.8773408,115.332031 C17.8773408,115.824219 17.7962654,116.355143 17.6341146,116.924805 C17.4719638,117.494466 17.2287375,118.100586 16.9044359,118.743164 C16.5801342,119.385742 16.1747571,120.067057 15.6883047,120.787109 C15.2018522,121.507161 14.6343243,122.263672 13.985721,123.056641 C13.985721,123.065755 13.9793203,123.07487 13.9665189,123.083984 C13.9537175,123.093099 13.9430497,123.102214 13.9345154,123.111328 Z M13.7937003,117.888672 C14.4764406,117.888672 15.0567699,117.633464 15.5346881,117.123047 C16.0126063,116.61263 16.2515654,115.992839 16.2515654,115.263672 C16.2515654,114.54362 16.0126063,113.926107 15.5346881,113.411133 C15.0567699,112.896159 14.4764406,112.638672 13.7937003,112.638672 C13.1194942,112.638672 12.5412985,112.896159 12.0591131,113.411133 C11.5769278,113.926107 11.3358351,114.54362 11.3358351,115.263672 C11.3358351,115.992839 11.5769278,116.61263 12.0591131,117.123047 C12.5412985,117.633464 13.1194942,117.888672 13.7937003,117.888672 Z M13.7937003,117.013672 C13.3413848,117.013672 12.9530762,116.840495 12.6287746,116.494141 C12.3044729,116.147786 12.1423221,115.733073 12.1423221,115.25 C12.1423221,114.766927 12.3023394,114.354492 12.6223739,114.012695 C12.9424084,113.670898 13.3285834,113.5 13.7808989,113.5 C14.2332143,113.5 14.6193893,113.670898 14.9394239,114.012695 C15.2594584,114.354492 15.4194757,114.766927 15.4194757,115.25 C15.4194757,115.733073 15.261592,116.147786 14.9458246,116.494141 C14.6300572,116.840495 14.2460157,117.013672 13.7937003,117.013672 Z" id="destination-map"></path>
            </g>
        </g>
    </g>
</svg>