<?xml version="1.0" encoding="UTF-8"?>
<svg width="34px" height="34px" viewBox="0 0 34 34" version="1.1" xmlns="http://www.w3.org/2000/svg" xmlns:xlink="http://www.w3.org/1999/xlink">
    <!-- Generator: Sketch 63.1 (92452) - https://sketch.com -->
    <title>Group 2</title>
    <desc>Created with Sketch.</desc>
    <g id="Consumer-App-Phase-1" stroke="none" stroke-width="1" fill="none" fill-rule="evenodd">
        <g id="Ticket-List" transform="translate(-15.000000, -255.000000)">
            <g id="Group-2" transform="translate(15.000000, 255.000000)">
                <rect id="Rectangle-Copy-4" stroke="#666666" fill="#FFFFFF" x="0.5" y="0.5" width="33" height="33" rx="4"></rect>
                <path d="M13.1363636,26 C13.4090909,26 13.6439394,25.90625 13.8409091,25.71875 C14.0378788,25.53125 14.1363636,25.296875 14.1363636,25.015625 L14.1363636,25.015625 L14.1363636,23.984375 L21.8636364,23.984375 L21.8636364,25.015625 C21.8636364,25.296875 21.9621212,25.53125 22.1590909,25.71875 C22.3560606,25.90625 22.5909091,26 22.8636364,26 L22.8636364,26 L23.8181818,26 C24.0909091,26 24.3181818,25.90625 24.5,25.71875 C24.6818182,25.53125 24.7727273,25.296875 24.7727273,25.015625 L24.7727273,25.015625 L24.7727273,23.1875 C24.8636364,23.09375 25.0075758,22.96875 25.2045455,22.8125 C25.4015152,22.65625 25.5454545,22.53125 25.6363636,22.4375 C25.7272727,22.34375 25.8106061,22.2109375 25.8863636,22.0390625 C25.9621212,21.8671875 26,21.6875 26,21.5 L26,21.5 L26,11.9375 C26,11.09375 25.7954545,10.3984375 25.3863636,9.8515625 C24.9772727,9.3046875 24.3712121,8.90625 23.5681818,8.65625 C22.7651515,8.40625 21.9393939,8.234375 21.0909091,8.140625 C20.2424242,8.046875 19.2121212,8 18,8 C16.7878788,8 15.7575758,8.046875 14.9090909,8.140625 C14.0606061,8.234375 13.2348485,8.40625 12.4318182,8.65625 C11.6287879,8.90625 11.0227273,9.3046875 10.6136364,9.8515625 C10.2045455,10.3984375 10,11.09375 10,11.9375 L10,11.9375 L10,21.5 C10,21.71875 10.0378788,21.9140625 10.1136364,22.0859375 C10.1893939,22.2578125 10.2727273,22.3828125 10.3636364,22.4609375 C10.4545455,22.5390625 10.5984848,22.65625 10.7954545,22.8125 C10.9924242,22.96875 11.1363636,23.09375 11.2272727,23.1875 L11.2272727,23.1875 L11.2272727,25.015625 C11.2272727,25.296875 11.3181818,25.53125 11.5,25.71875 C11.6818182,25.90625 11.9090909,26 12.1818182,26 L12.1818182,26 L13.1363636,26 Z M24,17 L12,17 L12,12 L24,12 L24,17 Z M13.5,22 C13.0625,22 12.703125,21.859375 12.421875,21.578125 C12.140625,21.296875 12,20.9375 12,20.5 C12,20.0625 12.140625,19.703125 12.421875,19.421875 C12.703125,19.140625 13.0625,19 13.5,19 C13.9375,19 14.296875,19.140625 14.578125,19.421875 C14.859375,19.703125 15,20.0625 15,20.5 C15,20.9375 14.859375,21.296875 14.578125,21.578125 C14.296875,21.859375 13.9375,22 13.5,22 Z M22.5,22 C22.0625,22 21.703125,21.859375 21.421875,21.578125 C21.140625,21.296875 21,20.9375 21,20.5 C21,20.0625 21.140625,19.703125 21.421875,19.421875 C21.703125,19.140625 22.0625,19 22.5,19 C22.9375,19 23.296875,19.140625 23.578125,19.421875 C23.859375,19.703125 24,20.0625 24,20.5 C24,20.9375 23.859375,21.296875 23.578125,21.578125 C23.296875,21.859375 22.9375,22 22.5,22 Z" id="ï­-copy-3" fill="#000000" fill-rule="nonzero"></path>
            </g>
        </g>
    </g>
</svg>