<?xml version="1.0" encoding="UTF-8"?>
<svg width="12px" height="18px" viewBox="0 0 12 18" version="1.1" xmlns="http://www.w3.org/2000/svg" xmlns:xlink="http://www.w3.org/1999/xlink">
    <!-- Generator: Sketch 63.1 (92452) - https://sketch.com -->
    <title>Group 3</title>
    <desc>Created with Sketch.</desc>
    <g id="Consumer-App-Phase-2" stroke="none" stroke-width="1" fill="none" fill-rule="evenodd">
        <g id="Ticket-List-past-Copy" transform="translate(-48.000000, -438.000000)">
            <g id="Group-3" transform="translate(48.000000, 438.000000)">
                <path d="M5.53553801,12.625 C5.64050675,12.625 5.72556762,12.5915441 5.79072063,12.5246324 C5.85587364,12.4577206 5.89206976,12.3848039 5.89930898,12.3058824 L5.89930898,12.3058824 L5.96446199,11.5492647 C6.36985851,11.5218137 6.73000987,11.4411765 7.04491609,11.3073529 C7.35982231,11.1735294 7.62495887,10.9993873 7.84032577,10.7849265 C8.05569266,10.5704657 8.21948009,10.3234069 8.33168806,10.04375 C8.44389602,9.76409314 8.5,9.46470588 8.5,9.14558824 C8.5,8.82303922 8.43665679,8.55453431 8.30997038,8.34007353 C8.18328397,8.12561275 8.01768674,7.94632353 7.81317868,7.80220588 C7.60867062,7.65808824 7.37882527,7.54056373 7.12364265,7.44963235 C6.86846002,7.35870098 6.61056269,7.2754902 6.34995064,7.2 L6.34995064,7.2 L6.53998026,5.06911765 C6.68114511,5.1 6.80964133,5.13946078 6.9254689,5.1875 C7.04129648,5.23553922 7.14717012,5.28272059 7.24308983,5.32904412 C7.33900954,5.37536765 7.42407042,5.41482843 7.49827246,5.44742647 C7.5724745,5.48002451 7.63672261,5.49632353 7.69101678,5.49632353 C7.76340902,5.49632353 7.82494242,5.47916667 7.87561698,5.44485294 C7.92629154,5.41053922 7.97696611,5.35906863 8.02764067,5.29044118 L8.02764067,5.29044118 L8.35340573,4.82205882 C8.14708786,4.63676471 7.90457387,4.47034314 7.62586377,4.32279412 C7.34715367,4.1752451 7.0159592,4.07230392 6.63228036,4.01397059 L6.63228036,4.01397059 L6.72458045,3 L6.23050346,3 C6.12553472,3 6.04047384,3.03259804 5.97532083,3.09779412 C5.91016782,3.1629902 5.8739717,3.23676471 5.86673248,3.31911765 L5.86673248,3.31911765 L5.80700888,3.96764706 C5.4088516,3.98480392 5.05593945,4.05686275 4.74827246,4.18382353 C4.44060546,4.31078431 4.18180322,4.47205882 3.97186575,4.66764706 C3.76192827,4.86323529 3.60176045,5.08541667 3.49136229,5.33419118 C3.38096413,5.58296569 3.32576505,5.8377451 3.32576505,6.09852941 C3.32576505,6.44852941 3.38729845,6.74019608 3.51036525,6.97352941 C3.63343205,7.20686275 3.79540967,7.39987745 3.99629812,7.55257353 C4.19718657,7.70526961 4.42341231,7.82794118 4.67497532,7.92058824 C4.92653833,8.01323529 5.18081606,8.09387255 5.43780849,8.1625 L5.43780849,8.1625 L5.23149062,10.4683824 C5.02879237,10.4340686 4.8532412,10.3808824 4.70483712,10.3088235 C4.55643304,10.2367647 4.42431721,10.1647059 4.30848963,10.0926471 C4.19266206,10.0205882 4.08950313,9.95796569 3.99901283,9.90477941 C3.90852254,9.85159314 3.82346167,9.825 3.74383021,9.825 C3.6786772,9.825 3.61623889,9.84129902 3.5565153,9.87389706 C3.49679171,9.9064951 3.44883185,9.94852941 3.41263574,10 L3.41263574,10 L3,10.5816176 C3.26061204,10.8252451 3.57642317,11.0294118 3.94743337,11.1941176 C4.31844357,11.3588235 4.71569595,11.4686275 5.13919052,11.5235294 L5.13919052,11.5235294 L5.04146101,12.625 L5.53553801,12.625 Z M5.54096742,6.95294118 C5.40342218,6.90490196 5.27673577,6.85085784 5.16090819,6.79080882 C5.04508062,6.7307598 4.94463639,6.66213235 4.85957552,6.58492647 C4.77451464,6.50772059 4.70845673,6.41936275 4.66140178,6.31985294 C4.61434682,6.22034314 4.59081935,6.10539216 4.59081935,5.975 C4.59081935,5.86176471 4.61163212,5.75453431 4.65325765,5.65330882 C4.69488319,5.55208333 4.7609411,5.46029412 4.85143139,5.37794118 C4.94192168,5.29558824 5.05774926,5.22610294 5.19891412,5.16948529 C5.34007897,5.11286765 5.51020072,5.07254902 5.70927937,5.04852941 L5.70927937,5.04852941 L5.54096742,6.95294118 Z M6.06219151,10.4838235 L6.24679171,8.39411765 C6.38795656,8.43872549 6.51826259,8.48848039 6.63770977,8.54338235 C6.75715696,8.59828431 6.8612208,8.66348039 6.94990128,8.73897059 C7.03858177,8.81446078 7.10735439,8.90110294 7.15621915,8.99889706 C7.20508391,9.09669118 7.22951629,9.21078431 7.22951629,9.34117647 C7.22951629,9.66029412 7.13088187,9.9185049 6.93361303,10.1158088 C6.73634419,10.3131127 6.44587035,10.4357843 6.06219151,10.4838235 L6.06219151,10.4838235 Z" id="$" fill="#279CF7" fill-rule="nonzero"></path>
                <path d="M11.4,0.6 L0.614846483,0.6 L0.99661784,16.2173118 L1.30325602,16.8447701 L2.4,15.3495425 L3.59994624,16.9854692 L4.8,15.3490323 L6,16.9853959 L7.2,15.3490323 L8.4,16.9853959 L9.6,15.3490323 L10.8,16.9853959 L11.4,16.1672141 L11.4,0.6 Z" id="Combined-Shape" stroke="#279CF7" stroke-width="1.2"></path>
            </g>
        </g>
    </g>
</svg>