<?xml version="1.0" encoding="UTF-8"?>
<svg width="18px" height="17px" viewBox="0 0 18 17" version="1.1" xmlns="http://www.w3.org/2000/svg" xmlns:xlink="http://www.w3.org/1999/xlink">
    <!-- Generator: Sketch 63.1 (92452) - https://sketch.com -->
    <title>Manual Entry Copy</title>
    <desc>Created with Sketch.</desc>
    <g id="Consumer-App-Phase-2" stroke="none" stroke-width="1" fill="none" fill-rule="evenodd">
        <g id="Ticket-List-Copy" transform="translate(-13.000000, -255.000000)">
            <g id="Manual-Entry-Copy" transform="translate(21.500000, 263.500000) rotate(-44.000000) translate(-21.500000, -263.500000) translate(13.000000, 258.000000)">
                <path d="M14.7149506,1.4669436 L2.71495064,1.4669436 C2.30073707,1.4669436 1.92573707,1.63483682 1.65429047,1.90628343 C1.38284386,2.17773004 1.21495064,2.55273004 1.21495064,3.37338726 C1.73050215,3.47648456 2.19163033,3.73608005 2.54884637,4.10286437 C3.01346082,4.57992385 3.30190716,5.23868148 3.30190716,5.9669436 C3.30190716,6.69520572 3.01346082,7.35396336 2.54884637,7.83102283 C2.19163033,8.19780715 1.73050215,8.45740265 1.21495064,8.9669436 C1.21495064,9.38115716 1.38284386,9.75615716 1.65429047,10.0276038 C1.92573707,10.2990504 2.30073707,10.4669436 2.71495064,10.4669436 L14.7149506,10.4669436 C15.1291642,10.4669436 15.5041642,10.2990504 15.7756108,10.0276038 C16.0470574,9.75615716 16.2149506,9.38115716 16.2149506,8.56049995 C15.6993991,8.45740265 15.2382709,8.19780715 14.8810549,7.83102283 C14.4164405,7.35396336 14.1279941,6.69520572 14.1279941,5.9669436 C14.1279941,5.23868148 14.4164405,4.57992385 14.8810549,4.10286437 C15.2382709,3.73608005 15.6993991,3.47648456 16.2149506,2.9669436 C16.2149506,2.55273004 16.0470574,2.17773004 15.7756108,1.90628343 C15.5041642,1.63483682 15.1291642,1.4669436 14.7149506,1.4669436 Z" id="Combined-Shape" stroke="#249FFF" fill="#FFFFFF"></path>
                <line x1="11.7527969" y1="1.38819239" x2="11.9109836" y2="10.1367624" id="Path-2" stroke="#279CF7" stroke-dasharray="1"></line>
                <polygon id="Rectangle" fill="#279CF7" transform="translate(7.584375, 3.997721) rotate(40.000000) translate(-7.584375, -3.997721) " points="5.78437474 5.09069341 8.8466935 2.39772144 9.38437474 2.90474946 6.32205599 5.59772144"></polygon>
                <polygon id="Rectangle-Copy" fill="#279CF7" transform="translate(7.479997, 6.121187) rotate(44.000000) translate(-7.479997, -6.121187) " points="5.87999707 7.21415881 8.60205819 4.52118684 9.07999707 5.02821486 6.35793595 7.72118684"></polygon>
                <polygon id="Rectangle-Copy-2" fill="#279CF7" transform="translate(6.383353, 8.120529) rotate(42.000000) translate(-6.383353, -8.120529) " points="5.38335253 8.60732286 6.89633057 7.12052942 7.38335253 7.63373598 5.8703745 9.12052942"></polygon>
            </g>
        </g>
    </g>
</svg>